<?xml version="1.0" encoding="UTF-8"?>
<svg width="512px" height="512px" viewBox="0 0 512 512" version="1.1" xmlns="http://www.w3.org/2000/svg" xmlns:xlink="http://www.w3.org/1999/xlink">
    <title>MCUK favicon</title>
    <g id="favicon" stroke="none" fill="none" fill-rule="nonzero">
        <path d="M255.493012,48 L255.542161,48.0866366 C257.136834,50.9094954 297.003672,122.35814 297.003672,210.075492 C297.003672,229.351143 295.014829,247.756582 291.986582,264.908015 C296.946024,254.653198 302.55968,244.275735 309.165575,234.013409 C354.101901,164.161181 422.906965,126.532654 422.906965,126.532654 C422.906965,126.532654 418.872505,202.17517 373.952774,272.028233 C364.9283,286.044234 354.953514,298.701102 344.765605,310.076431 C398.018685,288.580447 451.804442,291.532796 453.93457,291.659488 L454,291.663483 C454,291.663483 420.820297,331.151743 366.294374,353.32504 C345.490568,361.782699 324.601164,366.477504 306.691968,369.078128 C315.146953,369.675511 324.157452,370.85693 333.339146,373.007847 C372.233163,382.092742 399.488831,404.548858 400.5635,405.443468 L400.59646,405.471003 C400.59646,405.471003 363.820767,413.619957 324.1164,404.343816 C298.394202,398.323252 277.903964,386.540767 266.577952,378.945813 L276.05662,451.377806 C276.496838,454.81944 275.502853,458.279428 273.300015,460.892567 C271.09543,463.499865 267.929178,465 264.587362,465 L246.427486,465 C243.084797,465 239.918545,463.499865 237.715707,460.892567 C235.512869,458.279428 234.516264,454.81944 234.958229,451.377806 L244.436896,378.939972 C233.112631,386.533258 212.620645,398.322417 186.882727,404.343816 C147.179233,413.620791 110.402667,405.471003 110.402667,405.471003 L110.435626,405.443468 C111.510263,404.548858 138.765177,382.092742 177.663473,373.007847 C186.839928,370.85693 195.850427,369.675511 204.306286,369.078128 C186.403203,366.477504 165.5138,361.782699 144.709993,353.32504 C90.1823242,331.151743 57,291.663483 57,291.663483 C57,291.663483 111.880542,288.141753 166.237015,310.077265 C156.04736,298.701937 146.0717,286.045068 137.049846,272.029067 C92.1309887,202.176005 88.0930344,126.533488 88.0930344,126.533488 C88.0930344,126.533488 156.902466,164.162015 201.833552,234.014243 C208.425471,244.276569 214.053102,254.647358 219.014292,264.903843 C215.989538,247.75825 213.998948,229.351977 213.998948,210.077161 C213.998948,120.56799 255.493012,48 255.493012,48 Z" id="leaf" stroke="rgba(23,161,172,1)" stroke-width="15" fill="rgba(255,255,255,0.2)"></path>
    </g>
</svg>