<?xml version="1.0" encoding="UTF-8"?>
<svg width="512px" height="512px" viewBox="0 0 512 512" version="1.1" xmlns="http://www.w3.org/2000/svg" xmlns:xlink="http://www.w3.org/1999/xlink">
    <title>favicon</title>
    <g id="favicon" stroke="none" fill="none" fill-rule="evenodd" stroke-width="1">
        <g id="anchor_light" transform="translate(62, 40)">
            <path d="M126.965278,421.0925 C103.913426,413.154167 83.0226852,402.329167 64.2930556,388.6175 C45.5634259,374.905833 30.1655093,358.84875 18.0993056,340.44625 C6.03310185,322.04375 0,302.378333 0,281.45 L0,216.5 L86.4444444,281.45 L52.9472222,315.0075 C63.3925926,333.41 79.9611111,349.286667 102.652778,362.6375 C125.344444,375.988333 148.756481,384.467917 172.888889,388.07625 L172.888889,194.85 L108.055556,194.85 L108.055556,151.55 L172.888889,151.55 L172.888889,126.11125 C160.282407,121.420417 149.927083,113.572292 141.822917,102.566875 C133.71875,91.5614583 129.666667,79.0225 129.666667,64.95 C129.666667,46.9083333 135.969907,31.5729167 148.576389,18.94375 C161.18287,6.31458333 176.490741,0 194.5,0 C212.509259,0 227.81713,6.31458333 240.423611,18.94375 C253.030093,31.5729167 259.333333,46.9083333 259.333333,64.95 C259.333333,79.0225 255.28125,91.5614583 247.177083,102.566875 C239.072917,113.572292 228.717593,121.420417 216.111111,126.11125 L216.111111,151.55 L280.944444,151.55 L280.944444,194.85 L216.111111,194.85 L216.111111,388.07625 C240.243519,384.467917 263.655556,375.988333 286.347222,362.6375 C309.038889,349.286667 325.607407,333.41 336.052778,315.0075 L302.555556,281.45 L389,216.5 L389,281.45 C389,302.378333 382.966898,322.04375 370.900694,340.44625 C358.834491,358.84875 343.436574,374.905833 324.706944,388.6175 C305.977315,402.329167 285.086574,413.154167 262.034722,421.0925 C238.98287,429.030833 216.471296,433 194.5,433 C172.528704,433 150.01713,429.030833 126.965278,421.0925 Z" id="-path" fill="#FFFFFF"></path>
            <path d="M194.5,86.6 C200.623148,86.6 205.755787,84.5252083 209.897917,80.375625 C214.040046,76.2260417 216.111111,71.0841667 216.111111,64.95 C216.111111,58.8158333 214.040046,53.6739583 209.897917,49.524375 C205.755787,45.3747917 200.623148,43.3 194.5,43.3 C188.376852,43.3 183.244213,45.3747917 179.102083,49.524375 C174.959954,53.6739583 172.888889,58.8158333 172.888889,64.95 C172.888889,71.0841667 174.959954,76.2260417 179.102083,80.375625 C183.244213,84.5252083 188.376852,86.6 194.5,86.6 Z" id="-path" fill="#C09F52"></path>
        </g>
    </g>
</svg>