
        <svg xmlns="http://www.w3.org/2000/svg" xmlns:xlink="http://www.w3.org/1999/xlink" version="1.1" width="3162.1621621621625" height="1063.063081246472" viewBox="0 0 3162.1621621621625 1063.063081246472">
			
			<g transform="scale(8.108108108108109) translate(10, 10)">
				<defs id="SvgjsDefs1027"/><g id="SvgjsG1028" featureKey="monogramFeature-0" transform="matrix(2.64550269889837,0,0,2.64550269889837,0,-47.619053626066616)" fill="#000"><path d="M30.24 60 l-21.48 0 c-6.06 0 -8.76 -2.82 -8.76 -9.6 l0 -22.8 c0 -6.78 2.7 -9.6 8.76 -9.6 l21.48 0 c7.5 0 7.56 6.06 7.56 9.12 c0 2.28 -0.06 8.46 -7.56 8.46 l-2.1 0 l0 6.84 l2.1 0 c7.5 0 7.56 6.36 7.56 8.46 c0 2.88 -0.06 9.12 -7.56 9.12 z M30.24 22.14 l-21.48 0 c-3.3 0 -4.62 0.48 -4.62 5.46 l0 22.8 c0 4.98 1.32 5.46 4.62 5.46 l21.48 0 c2.88 0 3.42 -0.78 3.42 -4.98 c0 -4.8 -1.32 -4.32 -5.94 -4.32 c-0.96 4.56 -3.72 6.36 -8.76 6.36 c-5.22 0 -7.08 -5.94 -3.6 -8.94 c2.22 -1.86 4.8 -1.56 8.64 -1.56 l0 -6.84 l-3.78 0 c-8.82 0 -8.4 -10.5 -1.26 -10.5 c5.1 0 7.8 1.8 8.76 6.36 l2.52 0 c3.12 0 3.42 -1.26 3.42 -4.32 c0 -4.08 -0.6 -4.98 -3.42 -4.98 z M18.06 47.16 c-0.66 0.54 -0.48 1.62 0.9 1.62 c2.7 0 3.84 -0.36 4.5 -2.22 c-3.3 0 -4.5 -0.12 -5.4 0.6 z M18.96 29.22 c-1.92 0 -1.92 2.22 1.26 2.22 l3.24 0 c-0.66 -1.86 -1.8 -2.22 -4.5 -2.22 z"/></g><g id="SvgjsG1029" featureKey="nameFeature-0" transform="matrix(0.9916228327693821,0,0,0.9916228327693821,118.41340344392685,16.868694851798566)" fill="#000"><path d="M1.6 40 l0 -31.2 l23.96 0 l0 7.76 l-15.96 0 l0 4.48 l11.24 0 l0 7.24 l-11.24 0 l0 4 l15.96 0 l0 7.72 l-23.96 0 z M49.052 40.6 c-4.52 0 -8.4 -1.6 -11.64 -4.76 c-3.28 -3.16 -4.92 -7 -4.92 -11.44 s1.64 -8.28 4.92 -11.44 c3.24 -3.16 7.12 -4.76 11.64 -4.76 c4.56 0 8.48 1.6 11.72 4.76 c2.44 2.36 3.96 5.12 4.52 8.2 l-8.36 0 c-0.4 -1.04 -1.04 -2 -1.84 -2.8 c-1.64 -1.64 -3.64 -2.44 -6.04 -2.44 c-2.36 0 -4.36 0.84 -6 2.48 s-2.48 3.64 -2.48 6 s0.84 4.36 2.48 6 s3.64 2.48 6 2.48 c2.4 0 4.4 -0.84 6.04 -2.48 c1.12 -1.12 1.84 -2.36 2.2 -3.84 l8.16 0 c-0.44 3.56 -1.96 6.64 -4.68 9.28 c-3.24 3.16 -7.16 4.76 -11.72 4.76 z M72.384 40 l0 -31.2 l7.96 0 l0 12.12 l12.72 0 l0 -12.12 l8 0 l0 31.2 l-8 0 l0 -11.6 l-12.72 0 l0 11.6 l-7.96 0 z M124.55600000000001 40.6 c-4.52 0 -8.4 -1.6 -11.64 -4.76 c-3.28 -3.16 -4.92 -7 -4.92 -11.44 s1.64 -8.28 4.92 -11.44 c3.24 -3.16 7.12 -4.76 11.64 -4.76 c4.56 0 8.48 1.6 11.72 4.76 s4.84 7 4.84 11.44 s-1.6 8.28 -4.84 11.44 s-7.16 4.76 -11.72 4.76 z M124.55600000000001 32.88 c2.4 0 4.4 -0.84 6.04 -2.48 s2.44 -3.64 2.44 -6 s-0.8 -4.4 -2.44 -6.04 s-3.64 -2.44 -6.04 -2.44 c-2.36 0 -4.36 0.84 -6 2.48 s-2.48 3.64 -2.48 6 s0.84 4.36 2.48 6 s3.64 2.48 6 2.48 z M148.048 40 l0 -31.2 l13.76 0 c3.92 0 6.96 1 9.08 3 c2.12 2.04 3.16 4.56 3.16 7.48 c0 3.08 -1.04 5.64 -3.16 7.64 s-5.12 3.04 -9.08 3.04 l-5.76 0 l0 10.04 l-8 0 z M156.048 23.56 l5.32 0 c3.08 0 4.6 -1.4 4.6 -4.24 c0 -1.2 -0.36 -2.16 -1.12 -2.96 s-1.92 -1.16 -3.48 -1.16 l-5.32 0 l0 8.36 z M180.98 40 l12.64 -31.2 l7.92 0 l12.6 31.2 l-8.72 0 l-2.52 -6.96 l-10.6 0 l-2.6 6.96 l-8.72 0 z M194.78 26.560000000000002 l5.56 -0.04 l-2.76 -7.48 z M233.39199999999997 40 l0 -11.44 l-12.32 -19.76 l9.4 0 l6.88 11.32 l6.92 -11.32 l9.44 0 l-12.36 19.76 l0 11.44 l-7.96 0 z"/></g><g id="SvgjsG1030" featureKey="sloganFeature-0" transform="matrix(0.5981192136944622,0,0,0.5981192136944622,119.84448915274628,73.78211856187448)" fill="#000"><path d="M11.96 5.720000000000001 l0 2.64 l-4.28 0 l0 11.64 l-3.14 0 l0 -11.64 l-4.28 0 l0 -2.64 l11.7 0 z M21.7285 5.720000000000001 l0 5.48 l5.78 0 l0 -5.48 l3.14 0 l0 14.28 l-3.14 0 l0 -6.16 l-5.78 0 l0 6.16 l-3.14 0 l0 -14.28 l3.14 0 z M49.077000000000005 5.720000000000001 l0 2.64 l-7.54 0 l0 3.06 l6.92 0 l0 2.44 l-6.92 0 l0 3.5 l7.7 0 l0 2.64 l-10.84 0 l0 -14.28 l10.68 0 z M68.71400000000001 5.720000000000001 l2.26 9.72 l0.04 0 l2.48 -9.72 l2.94 0 l2.44 9.84 l0.04 0 l2.34 -9.84 l3.08 0 l-3.84 14.28 l-3.12 0 l-2.42 -9.72 l-0.04 0 l-2.38 9.72 l-3.18 0 l-3.78 -14.28 l3.14 0 z M97.52250000000001 5.720000000000001 l5.34 14.28 l-3.26 0 l-1.08 -3.18 l-5.34 0 l-1.12 3.18 l-3.18 0 l5.42 -14.28 l3.22 0 z M95.86250000000001 9.24 l-1.86 5.24 l3.7 0 l-1.8 -5.24 l-0.04 0 z M109.59100000000001 5.720000000000001 l3.34 5.64 l3.32 -5.64 l3.5 0 l-5.3 8.8 l0 5.48 l-3.14 0 l0 -5.56 l-5.26 -8.72 l3.54 0 z M147.068 5.720000000000001 l0 2.64 l-4.28 0 l0 11.64 l-3.14 0 l0 -11.64 l-4.28 0 l0 -2.64 l11.7 0 z M160.09650000000002 5.380000000000001 c2.1066 0 3.8034 0.7 5.09 2.1 s1.93 3.2134 1.93 5.44 c0 2.1734 -0.64666 3.9534 -1.94 5.34 s-2.9866 2.08 -5.08 2.08 c-2.1066 0 -3.8034 -0.69334 -5.09 -2.08 s-1.93 -3.1666 -1.93 -5.34 c0 -2.2134 0.64666 -4.0234 1.94 -5.43 s2.9866 -2.11 5.08 -2.11 z M156.21650000000002 12.92 c0 1.44 0.33998 2.5966 1.02 3.47 s1.6333 1.31 2.86 1.31 c1.2 0 2.1466 -0.43 2.84 -1.29 s1.04 -2.0234 1.04 -3.49 c0 -1.5333 -0.34334 -2.7334 -1.03 -3.6 s-1.6433 -1.3 -2.87 -1.3 c-1.2 0 -2.1434 0.43334 -2.83 1.3 s-1.03 2.0666 -1.03 3.6 z M191.2535 5.720000000000001 c1.52 0 2.72 0.41334 3.6 1.24 s1.32 1.94 1.32 3.34 c0 1.4133 -0.44 2.53 -1.32 3.35 s-2.0734 1.23 -3.58 1.23 l-3.34 0 l0 5.12 l-3.14 0 l0 -14.28 l6.46 0 z M190.4335 12.440000000000001 c0.90666 0 1.5833 -0.16666 2.03 -0.5 s0.67 -0.88 0.67 -1.64 c0 -0.73334 -0.21666 -1.2733 -0.65 -1.62 s-1.11 -0.52 -2.03 -0.52 l-2.52 0 l0 4.28 l2.5 0 z M208.762 5.720000000000001 l5.34 14.28 l-3.26 0 l-1.08 -3.18 l-5.34 0 l-1.12 3.18 l-3.18 0 l5.42 -14.28 l3.22 0 z M207.102 9.24 l-1.86 5.24 l3.7 0 l-1.8 -5.24 l-0.04 0 z M220.83050000000003 5.720000000000001 l3.34 5.64 l3.32 -5.64 l3.5 0 l-5.3 8.8 l0 5.48 l-3.14 0 l0 -5.56 l-5.26 -8.72 l3.54 0 z M258.3075 5.720000000000001 l0 2.64 l-4.28 0 l0 11.64 l-3.14 0 l0 -11.64 l-4.28 0 l0 -2.64 l11.7 0 z M271.33599999999996 5.380000000000001 c2.1066 0 3.8034 0.7 5.09 2.1 s1.93 3.2134 1.93 5.44 c0 2.1734 -0.64666 3.9534 -1.94 5.34 s-2.9866 2.08 -5.08 2.08 c-2.1066 0 -3.8034 -0.69334 -5.09 -2.08 s-1.93 -3.1666 -1.93 -5.34 c0 -2.2134 0.64666 -4.0234 1.94 -5.43 s2.9866 -2.11 5.08 -2.11 z M267.45599999999996 12.92 c0 1.44 0.33998 2.5966 1.02 3.47 s1.6333 1.31 2.86 1.31 c1.2 0 2.1466 -0.43 2.84 -1.29 s1.04 -2.0234 1.04 -3.49 c0 -1.5333 -0.34334 -2.7334 -1.03 -3.6 s-1.6433 -1.3 -2.87 -1.3 c-1.2 0 -2.1434 0.43334 -2.83 1.3 s-1.03 2.0666 -1.03 3.6 z M291.6045 5.720000000000001 c2.0266 0 3.62 0.62666 4.78 1.88 s1.74 2.98 1.74 5.18 c0 2.28 -0.58334 4.0534 -1.75 5.32 s-2.73 1.9 -4.69 1.9 l-6.2 0 l0 -14.28 l6.12 0 z M291.4045 17.36 c1.1333 0 2.0134 -0.37334 2.64 -1.12 s0.94 -1.8067 0.94 -3.18 c0 -1.5733 -0.33666 -2.75 -1.01 -3.53 s-1.71 -1.17 -3.11 -1.17 l-2.24 0 l0 9 l2.78 0 z M312.41299999999995 5.720000000000001 l5.34 14.28 l-3.26 0 l-1.08 -3.18 l-5.34 0 l-1.12 3.18 l-3.18 0 l5.42 -14.28 l3.22 0 z M310.75299999999993 9.24 l-1.86 5.24 l3.7 0 l-1.8 -5.24 l-0.04 0 z M324.4814999999999 5.720000000000001 l3.34 5.64 l3.32 -5.64 l3.5 0 l-5.3 8.8 l0 5.48 l-3.14 0 l0 -5.56 l-5.26 -8.72 l3.54 0 z"/></g>
			</g>
		</svg>
	