<?xml version="1.0" encoding="UTF-8"?>
<svg width="512px" height="512px" viewBox="0 0 512 512" version="1.1" xmlns="http://www.w3.org/2000/svg" xmlns:xlink="http://www.w3.org/1999/xlink">
    <title>EchoPlug</title>
    <g id="EchoPlug" stroke="none" fill="none" fill-rule="nonzero">
        <path d="M351.610827,436 L169.201303,436 C117.739399,436 94.8108272,411.962857 94.8108272,354.171429 L94.8108272,159.828571 C94.8108272,102.037143 117.739399,78 169.201303,78 L351.610827,78 C415.301303,78 415.810827,129.654286 415.810827,155.737143 C415.810827,175.171429 415.301303,227.848571 351.610827,227.848571 L333.777494,227.848571 L333.777494,286.151429 L351.610827,286.151429 C415.301303,286.151429 415.810827,340.362857 415.810827,358.262857 C415.810827,382.811429 415.301303,436 351.610827,436 Z M351.610827,113.288571 L169.201303,113.288571 C141.177494,113.288571 129.96797,117.38 129.96797,159.828571 L129.96797,354.171429 C129.96797,396.62 141.177494,400.711429 169.201303,400.711429 L351.610827,400.711429 C376.06797,400.711429 380.653684,394.062857 380.653684,358.262857 C380.653684,317.348571 369.444161,321.44 330.210827,321.44 C322.058446,360.308571 298.620351,375.651429 255.820351,375.651429 C211.49178,375.651429 195.696541,325.02 225.248922,299.448571 C244.101303,283.594286 266.010827,286.151429 298.620351,286.151429 L298.620351,227.848571 L266.520351,227.848571 C191.620351,227.848571 195.187018,138.348571 255.820351,138.348571 C299.129875,138.348571 322.058446,153.691429 330.210827,192.56 L351.610827,192.56 C378.106065,192.56 380.653684,181.82 380.653684,155.737143 C380.653684,120.96 375.558446,113.288571 351.610827,113.288571 L351.610827,113.288571 Z M248.177494,326.554286 C242.572732,331.157143 244.101303,340.362857 255.820351,340.362857 C278.748922,340.362857 288.429875,337.294286 294.034637,321.44 C266.010827,321.44 255.820351,320.417143 248.177494,326.554286 L248.177494,326.554286 Z M255.820351,173.637143 C239.515589,173.637143 239.515589,192.56 266.520351,192.56 L294.034637,192.56 C288.429875,176.705714 278.748922,173.637143 255.820351,173.637143 Z" id="echopay-logo" fill="#FFFFFF"></path>
    </g>
</svg>