<?xml version="1.0" encoding="UTF-8"?>
<svg width="512px" height="512px" viewBox="0 0 512 512" version="1.1" xmlns="http://www.w3.org/2000/svg" xmlns:xlink="http://www.w3.org/1999/xlink">
    <title>EchoPlug</title>
    <g id="EchoPlug" stroke="none" fill="none">
        <path d="M146.141456,-7.25467311e-15 L365.858544,7.25467311e-15 C416.675112,-4.215174e-15 435.102427,5.29105984 453.680205,15.2265641 C472.257983,25.1620684 486.837932,39.7420171 496.773436,58.3197949 C506.70894,76.8975727 512,95.3248882 512,146.141456 L512,365.858544 C512,416.675112 506.70894,435.102427 496.773436,453.680205 C486.837932,472.257983 472.257983,486.837932 453.680205,496.773436 C435.102427,506.70894 416.675112,512 365.858544,512 L146.141456,512 C95.3248882,512 76.8975727,506.70894 58.3197949,496.773436 C39.7420171,486.837932 25.1620684,472.257983 15.2265641,453.680205 C5.29105984,435.102427 0,416.675112 0,365.858544 L7.25467311e-15,146.141456 C-4.215174e-15,95.3248882 5.29105984,76.8975727 15.2265641,58.3197949 C25.1620684,39.7420171 39.7420171,25.1620684 58.3197949,15.2265641 C76.8975727,5.29105984 95.3248882,4.215174e-15 146.141456,-7.25467311e-15 Z" id="bg" fill="none" fill-rule="evenodd"></path>
        <path d="M317.210827,369 L201.855272,369 C169.310827,369 154.810827,353.825714 154.810827,317.342857 L154.810827,194.657143 C154.810827,158.174286 169.310827,143 201.855272,143 L317.210827,143 C357.488605,143 357.810827,175.608571 357.810827,192.074286 C357.810827,204.342857 357.488605,237.597143 317.210827,237.597143 L305.933049,237.597143 L305.933049,274.402857 L317.210827,274.402857 C357.488605,274.402857 357.810827,308.625714 357.810827,319.925714 C357.810827,335.422857 357.488605,369 317.210827,369 Z M317.210827,165.277143 L201.855272,165.277143 C184.133049,165.277143 177.044161,167.86 177.044161,194.657143 L177.044161,317.342857 C177.044161,344.14 184.133049,346.722857 201.855272,346.722857 L317.210827,346.722857 C332.677494,346.722857 335.577494,342.525714 335.577494,319.925714 C335.577494,294.097143 328.488605,296.68 303.677494,296.68 C298.521938,321.217143 283.699716,330.902857 256.633049,330.902857 C228.599716,330.902857 218.610827,298.94 237.299716,282.797143 C249.221938,272.788571 263.077494,274.402857 283.699716,274.402857 L283.699716,237.597143 L263.399716,237.597143 C216.033049,237.597143 218.288605,181.097143 256.633049,181.097143 C284.021938,181.097143 298.521938,190.782857 303.677494,215.32 L317.210827,215.32 C333.966383,215.32 335.577494,208.54 335.577494,192.074286 C335.577494,170.12 332.355272,165.277143 317.210827,165.277143 L317.210827,165.277143 Z M251.799716,299.908571 C248.255272,302.814286 249.221938,308.625714 256.633049,308.625714 C271.133049,308.625714 277.255272,306.688571 280.799716,296.68 C263.077494,296.68 256.633049,296.034286 251.799716,299.908571 L251.799716,299.908571 Z M256.633049,203.374286 C246.321938,203.374286 246.321938,215.32 263.399716,215.32 L280.799716,215.32 C277.255272,205.311429 271.133049,203.374286 256.633049,203.374286 Z" id="echopay-logo" fill="#FFFFFF" fill-rule="nonzero"></path>
    </g>
</svg>