<?xml version="1.0" encoding="UTF-8"?>
<svg width="300px" height="100px" viewBox="0 0 300 100" version="1.1" xmlns="http://www.w3.org/2000/svg" xmlns:xlink="http://www.w3.org/1999/xlink">
    <title>EchoPayLogo</title>
    <g id="Page-1" stroke="none" stroke-width="1" fill="none" fill-rule="evenodd">
        <g id="EchoPayLogo" fill="#012867" fill-rule="nonzero">
            <g id="ECHOPAY" transform="translate(100, 26)">
                <path d="M1.35108126e-14,24.537037 L1.35108126e-14,0.462962963 L18.3421654,0.462962963 L18.3421654,6.45061728 L6.12426223,6.45061728 L6.12426223,9.90740741 L14.7288507,9.90740741 L14.7288507,15.4938272 L6.12426223,15.4938272 L6.12426223,18.5802469 L18.3421654,18.5802469 L18.3421654,24.537037 L1.35108126e-14,24.537037 L1.35108126e-14,24.537037 Z M36.3260614,25 C32.8658533,25 29.8955861,23.7654321 27.4152599,21.3271605 C24.9043124,18.8888889 23.6488386,15.9259259 23.6488386,12.5 C23.6488386,9.07407407 24.9043124,6.11111111 27.4152599,3.67283951 C29.8955861,1.2345679 32.8658533,0 36.3260614,0 C39.8168909,0 42.8177794,1.2345679 45.2981056,3.67283951 C47.1660056,5.49382716 48.3296154,7.62345679 48.7583138,10 L42.3584597,10 C42.0522466,9.19753086 41.5623056,8.45679012 40.9498794,7.83950617 C39.6944057,6.57407407 38.1633401,5.95679012 36.3260614,5.95679012 C34.5194041,5.95679012 32.9883385,6.60493827 31.7328648,7.87037037 C30.477391,9.13580247 29.8343435,10.6790123 29.8343435,12.5 C29.8343435,14.3209877 30.477391,15.8641975 31.7328648,17.1296296 C32.9883385,18.3950617 34.5194041,19.0432099 36.3260614,19.0432099 C38.1633401,19.0432099 39.6944057,18.3950617 40.9498794,17.1296296 C41.8072761,16.2654321 42.3584597,15.308642 42.6340515,14.1666667 L48.880799,14.1666667 C48.5439646,16.9135802 47.3803548,19.2901235 45.2981056,21.3271605 C42.8177794,23.7654321 39.8168909,25 36.3260614,25 Z M54.1874722,24.537037 L54.1874722,0.462962963 L60.2811132,0.462962963 L60.2811132,9.81481481 L70.0186901,9.81481481 L70.0186901,0.462962963 L76.1429523,0.462962963 L76.1429523,24.537037 L70.0186901,24.537037 L70.0186901,15.5864198 L60.2811132,15.5864198 L60.2811132,24.537037 L54.1874722,24.537037 Z M94.1268484,25 C90.6666402,25 87.696373,23.7654321 85.2160468,21.3271605 C82.7050993,18.8888889 81.4496256,15.9259259 81.4496256,12.5 C81.4496256,9.07407407 82.7050993,6.11111111 85.2160468,3.67283951 C87.696373,1.2345679 90.6666402,0 94.1268484,0 C97.6176779,0 100.618566,1.2345679 103.098893,3.67283951 C105.579219,6.11111111 106.804071,9.07407407 106.804071,12.5 C106.804071,15.9259259 105.579219,18.8888889 103.098893,21.3271605 C100.618566,23.7654321 97.6176779,25 94.1268484,25 Z M94.1268484,19.0432099 C95.9641271,19.0432099 97.4951926,18.3950617 98.7506664,17.1296296 C100.00614,15.8641975 100.618566,14.3209877 100.618566,12.5 C100.618566,10.6790123 100.00614,9.10493827 98.7506664,7.83950617 C97.4951926,6.57407407 95.9641271,5.95679012 94.1268484,5.95679012 C92.320191,5.95679012 90.7891255,6.60493827 89.5336517,7.87037037 C88.278178,9.13580247 87.6351304,10.6790123 87.6351304,12.5 C87.6351304,14.3209877 88.278178,15.8641975 89.5336517,17.1296296 C90.7891255,18.3950617 92.320191,19.0432099 94.1268484,19.0432099 L94.1268484,19.0432099 Z M112.110744,24.537037 L112.110744,0.462962963 L122.644475,0.462962963 C125.645364,0.462962963 127.972584,1.2345679 129.595513,2.77777778 C131.218443,4.35185185 132.014597,6.2962963 132.014597,8.54938272 C132.014597,10.9259259 131.218443,12.9012346 129.595513,14.4444444 C127.972584,15.9876543 125.675985,16.7901235 122.644475,16.7901235 L118.235007,16.7901235 L118.235007,24.537037 L112.110744,24.537037 Z M118.235007,11.8518519 L122.307641,11.8518519 C124.665482,11.8518519 125.829092,10.7716049 125.829092,8.58024691 C125.829092,7.65432099 125.5535,6.91358025 124.971695,6.2962963 C124.38989,5.67901235 123.501872,5.40123457 122.307641,5.40123457 L118.235007,5.40123457 L118.235007,11.8518519 Z M137.32127,24.537037 L146.997604,0.462962963 L153.060624,0.462962963 L162.706337,24.537037 L156.030891,24.537037 L154.101748,19.1666667 L145.987101,19.1666667 L143.996716,24.537037 L137.32127,24.537037 Z M147.885622,14.1666667 L152.141985,14.1358025 L150.029114,8.36419753 L147.885622,14.1666667 Z M177.444374,24.537037 L177.444374,15.7098765 L168.01301,0.462962963 L175.209018,0.462962963 L180.475884,9.19753086 L185.773371,0.462962963 L193,0.462962963 L183.538015,15.7098765 L183.538015,24.537037 L177.444374,24.537037 Z" id="text"></path>
            </g>
            <g id="EchoPayPlug" transform="translate(7, 7)">
                <path d="M62.4,86 L18.0761905,86 C5.57142857,86 0,80.2257143 0,66.3428571 L0,19.6571429 C0,5.77428571 5.57142857,8.09102373e-16 18.0761905,8.09102373e-16 L62.4,8.09102373e-16 C77.8761905,8.09102373e-16 78,12.4085714 78,18.6742857 C78,23.3428571 77.8761905,35.9971429 62.4,35.9971429 L58.0666667,35.9971429 L58.0666667,50.0028571 L62.4,50.0028571 C77.8761905,50.0028571 78,63.0257143 78,67.3257143 C78,73.2228571 77.8761905,86 62.4,86 Z M62.4,8.47714286 L18.0761905,8.47714286 C11.2666667,8.47714286 8.54285714,9.46 8.54285714,19.6571429 L8.54285714,66.3428571 C8.54285714,76.54 11.2666667,77.5228571 18.0761905,77.5228571 L62.4,77.5228571 C68.3428571,77.5228571 69.4571429,75.9257143 69.4571429,67.3257143 C69.4571429,57.4971429 66.7333333,58.48 57.2,58.48 C55.2190476,67.8171429 49.5238095,71.5028571 39.1238095,71.5028571 C28.352381,71.5028571 24.5142857,59.34 31.6952381,53.1971429 C36.2761905,49.3885714 41.6,50.0028571 49.5238095,50.0028571 L49.5238095,35.9971429 L41.7238095,35.9971429 C23.5238095,35.9971429 24.3904762,14.4971429 39.1238095,14.4971429 C49.647619,14.4971429 55.2190476,18.1828571 57.2,27.52 L62.4,27.52 C68.8380952,27.52 69.4571429,24.94 69.4571429,18.6742857 C69.4571429,10.32 68.2190476,8.47714286 62.4,8.47714286 L62.4,8.47714286 Z M37.2666667,59.7085714 C35.9047619,60.8142857 36.2761905,63.0257143 39.1238095,63.0257143 C44.6952381,63.0257143 47.047619,62.2885714 48.4095238,58.48 C41.6,58.48 39.1238095,58.2342857 37.2666667,59.7085714 L37.2666667,59.7085714 Z M39.1238095,22.9742857 C35.1619048,22.9742857 35.1619048,27.52 41.7238095,27.52 L48.4095238,27.52 C47.047619,23.7114286 44.6952381,22.9742857 39.1238095,22.9742857 Z" id="Shape"></path>
            </g>
        </g>
    </g>
</svg>