<?xml version="1.0" encoding="UTF-8"?>
<svg width="512px" height="512px" viewBox="0 0 512 512" version="1.1" xmlns="http://www.w3.org/2000/svg" xmlns:xlink="http://www.w3.org/1999/xlink">
    <title>maskable</title>
    <defs>
        <linearGradient x1="50%" y1="0%" x2="50%" y2="100%" id="linearGradient-1">
            <stop stop-color="#3B3B3B" offset="0%"></stop>
            <stop stop-color="#000000" offset="100%"></stop>
        </linearGradient>
        <path d="M146.141456,-7.25467311e-15 L365.858544,7.25467311e-15 C416.675112,-4.215174e-15 435.102427,5.29105984 453.680205,15.2265641 C472.257983,25.1620684 486.837932,39.7420171 496.773436,58.3197949 C506.70894,76.8975727 512,95.3248882 512,146.141456 L512,365.858544 C512,416.675112 506.70894,435.102427 496.773436,453.680205 C486.837932,472.257983 472.257983,486.837932 453.680205,496.773436 C435.102427,506.70894 416.675112,512 365.858544,512 L146.141456,512 C95.3248882,512 76.8975727,506.70894 58.3197949,496.773436 C39.7420171,486.837932 25.1620684,472.257983 15.2265641,453.680205 C5.29105984,435.102427 0,416.675112 0,365.858544 L7.25467311e-15,146.141456 C-4.215174e-15,95.3248882 5.29105984,76.8975727 15.2265641,58.3197949 C25.1620684,39.7420171 39.7420171,25.1620684 58.3197949,15.2265641 C76.8975727,5.29105984 95.3248882,4.215174e-15 146.141456,-7.25467311e-15 Z" id="path-2"></path>
    </defs>
    <g id="maskable" stroke="none" fill="none" fill-rule="evenodd">
        <g id="bg">
            <use fill="#854D4D" xlink:href="#path-2"></use>
            <use fill="url(#linearGradient-1)" xlink:href="#path-2"></use>
        </g>
        <g id="NXIcon" stroke-width="1" transform="translate(244.2421, 244.247)" fill="#C09F52">
            <path d="M-0.547756378,99.9457082 C-51.5579953,97.5383911 -92.141613,55.4905862 -92.141613,3.81351306 C-92.141613,-49.3079504 -48.9914424,-92.4791699 4.10412076,-92.4791699 C55.7559979,-92.4791699 97.7833016,-51.8757552 100.189445,-0.840633286 L66.5034382,-10.951365 C59.9266464,-39.3577065 34.4215269,-60.3816089 4.10412076,-60.3816089 C-31.3463912,-60.3816089 -60.0597018,-31.6542918 -60.0597018,3.81351306 C-60.0597018,34.1457082 -39.0460499,59.6632692 -10.6535584,66.2432692 L-0.547756378,99.9457082 Z M164.513677,3.81351306 C164.513677,8.6281472 164.353268,13.4427813 163.872039,18.2574155 L132.271356,8.78863501 C132.431766,7.18375696 132.431766,5.4183911 132.431766,3.81351306 C132.431766,-67.1220967 75.0051446,-124.576731 4.10412076,-124.576731 C-66.7969031,-124.576731 -124.223524,-67.1220967 -124.223524,3.81351306 C-124.223524,74.7491228 -66.7969031,132.203757 4.10412076,132.203757 C5.70821632,132.203757 7.47272144,132.203757 9.076817,132.043269 L18.5409808,163.659367 C13.7286941,164.14083 8.91640744,164.301318 4.10412076,164.301318 C-84.4419543,164.301318 -156.305436,92.4027813 -156.305436,3.81351306 C-156.305436,-84.7757552 -84.4419543,-156.674292 4.10412076,-156.674292 C92.6501958,-156.674292 164.513677,-84.7757552 164.513677,3.81351306 Z" id="target" fill-rule="nonzero" transform="translate(8.1946, 7.8257) rotate(-224) translate(-8.1946, -7.8257)"></path>
            <polygon id="arrow" transform="translate(-105.242, 5.818) rotate(-224) translate(105.242, -5.818)" points="-89.6020914 -10.0702968 -29.1276887 -30.2917602 -189.537245 -78.4381016 -141.414378 82.0497032 -121.202774 21.5458008 -52.7078935 90.0740935 -20.9468013 58.2975081"></polygon>
        </g>
    </g>
</svg>