<?xml version="1.0" encoding="UTF-8"?>
<svg width="512px" height="512px" viewBox="0 0 512 512" version="1.1" xmlns="http://www.w3.org/2000/svg" xmlns:xlink="http://www.w3.org/1999/xlink">
    <title>favicon</title>
    <defs>
        <path d="M146.141456,-7.25467311e-15 L365.858544,7.25467311e-15 C416.675112,-4.215174e-15 435.102427,5.29105984 453.680205,15.2265641 C472.257983,25.1620684 486.837932,39.7420171 496.773436,58.3197949 C506.70894,76.8975727 512,95.3248882 512,146.141456 L512,365.858544 C512,416.675112 506.70894,435.102427 496.773436,453.680205 C486.837932,472.257983 472.257983,486.837932 453.680205,496.773436 C435.102427,506.70894 416.675112,512 365.858544,512 L146.141456,512 C95.3248882,512 76.8975727,506.70894 58.3197949,496.773436 C39.7420171,486.837932 25.1620684,472.257983 15.2265641,453.680205 C5.29105984,435.102427 0,416.675112 0,365.858544 L7.25467311e-15,146.141456 C-4.215174e-15,95.3248882 5.29105984,76.8975727 15.2265641,58.3197949 C25.1620684,39.7420171 39.7420171,25.1620684 58.3197949,15.2265641 C76.8975727,5.29105984 95.3248882,4.215174e-15 146.141456,-7.25467311e-15 Z" id="path-1"></path>
    </defs>
    <g id="favicon" stroke="none" fill="none">
        
        <path d="M123.1,389 C113.9975,389 106.205208,385.75651 99.723125,379.269531 C93.2410417,372.782552 90,364.984375 90,355.875 L90,157.125 C90,148.015625 93.2410417,140.217448 99.723125,133.730469 C106.205208,127.24349 113.9975,124 123.1,124 L387.9,124 C397.0025,124 404.794792,127.24349 411.276875,133.730469 C417.758958,140.217448 421,148.015625 421,157.125 L421,355.875 C421,364.984375 417.758958,372.782552 411.276875,379.269531 C404.794792,385.75651 397.0025,389 387.9,389 L123.1,389 Z M123.1,355.875 L387.9,355.875 L387.9,190.25 L123.1,190.25 L123.1,355.875 Z M181.025,339.3125 L157.855,316.125 L200.47125,273.0625 L157.44125,230 L181.025,206.8125 L247.225,273.0625 L181.025,339.3125 Z M255.5,339.3125 L255.5,306.1875 L354.8,306.1875 L354.8,339.3125 L255.5,339.3125 Z" id="EdTech" fill="#33FF66" fill-rule="nonzero"></path>
    </g>
</svg>