<?xml version="1.0" encoding="UTF-8"?>
<svg width="64px" height="64px" viewBox="0 0 64 64" version="1.1" xmlns="http://www.w3.org/2000/svg" xmlns:xlink="http://www.w3.org/1999/xlink">
    <title>favicon</title>
    <g id="Page-1" stroke="none" stroke-width="1" fill="none" fill-rule="evenodd">
        <g id="favicon">
            <g id="bg">
                <path d="M18.267682,-9.06834139e-16 L45.732318,-9.06834139e-16 C52.084389,-9.06834139e-16 54.3878034,0.66138248 56.7100256,1.90332051 C59.0322479,3.14525855 60.8547415,4.96775214 62.0966795,7.28997436 C63.3386175,9.61219659 64,11.915611 64,18.267682 L64,45.732318 C64,52.084389 63.3386175,54.3878034 62.0966795,56.7100256 C60.8547415,59.0322479 59.0322479,60.8547415 56.7100256,62.0966795 C54.3878034,63.3386175 52.084389,64 45.732318,64 L18.267682,64 C11.915611,64 9.61219659,63.3386175 7.28997436,62.0966795 C4.96775214,60.8547415 3.14525855,59.0322479 1.90332051,56.7100256 C0.66138248,54.3878034 0,52.084389 0,45.732318 L0,18.267682 C0,11.915611 0.66138248,9.61219659 1.90332051,7.28997436 C3.14525855,4.96775214 4.96775214,3.14525855 7.28997436,1.90332051 C9.61219659,0.66138248 11.915611,-9.06834139e-16 18.267682,-9.06834139e-16 Z" id="path-2"></path>
            </g>
            <g id="NXIcon" transform="translate(2.4793, 3.1553)" fill="#C05252">
                <path d="M29.2100449,40.3759127 C22.833765,40.0749981 17.7608128,34.8190225 17.7608128,28.3593883 C17.7608128,21.7192054 23.1545841,16.322803 29.7915295,16.322803 C36.2480142,16.322803 41.5014271,21.3982298 41.8021951,27.7776201 L37.5914442,26.5137786 C36.7693452,22.9629859 33.5812053,20.3349981 29.7915295,20.3349981 C25.3602155,20.3349981 21.7710517,23.9259127 21.7710517,28.3593883 C21.7710517,32.1509127 24.3977582,35.3406079 27.9468196,36.1631079 L29.2100449,40.3759127 Z M49.8427241,28.3593883 C49.8427241,28.9612176 49.8226729,29.5630469 49.7625193,30.1648762 L45.8124339,28.9812786 C45.8324852,28.7806688 45.8324852,28.5599981 45.8324852,28.3593883 C45.8324852,19.4924371 38.6541575,12.3106078 29.7915295,12.3106078 C20.9289016,12.3106078 13.7505739,19.4924371 13.7505739,28.3593883 C13.7505739,37.2263396 20.9289016,44.4081688 29.7915295,44.4081688 C29.9920415,44.4081688 30.2126046,44.4081688 30.4131166,44.3881078 L31.596137,48.3401201 C30.9946012,48.400303 30.3930654,48.420364 29.7915295,48.420364 C18.7232702,48.420364 9.74033494,39.4330469 9.74033494,28.3593883 C9.74033494,17.2857298 18.7232702,8.29841272 29.7915295,8.29841272 C40.8597889,8.29841272 49.8427241,17.2857298 49.8427241,28.3593883 Z" id="target" fill-rule="nonzero" transform="translate(29.7915, 28.3594) rotate(136) translate(-29.7915, -28.3594)"></path>
                <polygon id="arrow" transform="translate(14.8958, 28.1028) rotate(136) translate(-14.8958, -28.1028)" points="16.8507554 26.1168076 24.4100557 23.5891247 4.3588612 17.570832 10.3742196 37.6318076 12.9006701 30.0688198 21.4625301 38.6348564 25.4326667 34.6627832"></polygon>
            </g>
        </g>
    </g>
</svg>