<?xml version="1.0" encoding="UTF-8"?>
<svg width="64px" height="64px" viewBox="0 0 64 64" version="1.1" xmlns="http://www.w3.org/2000/svg" xmlns:xlink="http://www.w3.org/1999/xlink">
    <title>favicon</title>
    <g id="favicon" stroke="none" fill="none" fill-rule="evenodd" stroke-width="1">
        <g>
            <g id="bg">
                <path d="M18.267682,-9.06834139e-16 L45.732318,-9.06834139e-16 C52.084389,-9.06834139e-16 54.3878034,0.66138248 56.7100256,1.90332051 C59.0322479,3.14525855 60.8547415,4.96775214 62.0966795,7.28997436 C63.3386175,9.61219659 64,11.915611 64,18.267682 L64,45.732318 C64,52.084389 63.3386175,54.3878034 62.0966795,56.7100256 C60.8547415,59.0322479 59.0322479,60.8547415 56.7100256,62.0966795 C54.3878034,63.3386175 52.084389,64 45.732318,64 L18.267682,64 C11.915611,64 9.61219659,63.3386175 7.28997436,62.0966795 C4.96775214,60.8547415 3.14525855,59.0322479 1.90332051,56.7100256 C0.66138248,54.3878034 0,52.084389 0,45.732318 L0,18.267682 C0,11.915611 0.66138248,9.61219659 1.90332051,7.28997436 C3.14525855,4.96775214 4.96775214,3.14525855 7.28997436,1.90332051 C9.61219659,0.66138248 11.915611,-9.06834139e-16 18.267682,-9.06834139e-16 Z" id="path-2"></path>
            </g>
            <g id="NXIcon" transform="translate(2.4793, 3.1553)" fill="#FAB109">
                <path d="M29.2100022,40.3759532 C22.8337223,40.0750386 17.7607701,34.819063 17.7607701,28.3594288 C17.7607701,21.7192459 23.1545414,16.3228435 29.7914868,16.3228435 C36.2479715,16.3228435 41.5013844,21.3982703 41.8021524,27.7776606 L37.5914015,26.5138191 C36.7693025,22.9630264 33.5811626,20.3350386 29.7914868,20.3350386 C25.3601728,20.3350386 21.771009,23.9259532 21.771009,28.3594288 C21.771009,32.1509532 24.3977155,35.3406484 27.9467769,36.1631484 L29.2100022,40.3759532 Z M49.8426814,28.3594288 C49.8426814,28.9612581 49.8226302,29.5630874 49.7624766,30.1649167 L45.8123912,28.9813191 C45.8324425,28.7807093 45.8324425,28.5600386 45.8324425,28.3594288 C45.8324425,19.4924776 38.6541148,12.3106483 29.7914868,12.3106483 C20.9288589,12.3106483 13.7505312,19.4924776 13.7505312,28.3594288 C13.7505312,37.2263801 20.9288589,44.4082093 29.7914868,44.4082093 C29.9919988,44.4082093 30.2125619,44.4082093 30.4130739,44.3881483 L31.5960943,48.3401606 C30.9945585,48.4003435 30.3930227,48.4204045 29.7914868,48.4204045 C18.7232275,48.4204045 9.74029227,39.4330874 9.74029227,28.3594288 C9.74029227,17.2857703 18.7232275,8.29845324 29.7914868,8.29845324 C40.8597462,8.29845324 49.8426814,17.2857703 49.8426814,28.3594288 Z" id="target" fill-rule="nonzero" transform="translate(29.7915, 28.3594) rotate(136) translate(-29.7915, -28.3594)"></path>
                <polygon id="arrow" transform="translate(14.8958, 28.1027) rotate(136) translate(-14.8958, -28.1027)" points="16.8507867 26.1167066 24.410087 23.5890237 4.35889248 17.570731 10.3742509 37.6317066 12.9007014 30.0687188 21.4625614 38.6347554 25.432698 34.6626822"></polygon>
            </g>
        </g>
    </g>
</svg>