<?xml version="1.0" encoding="UTF-8"?>
<svg width="512px" height="512px" viewBox="0 0 512 512" version="1.1" xmlns="http://www.w3.org/2000/svg" xmlns:xlink="http://www.w3.org/1999/xlink">
    <title>favicon</title>
    <g id="favicon" stroke="none" fill="none" fill-rule="evenodd" stroke-width="1">
        <g>
            <path d="M146.141456,0 L365.858544,0 C416.675112,0 435.102427,5.29105984 453.680205,15.2265641 C472.257983,25.1620684 486.837932,39.7420171 496.773436,58.3197949 C506.70894,76.8975727 512,95.3248882 512,146.141456 L512,365.858544 C512,416.675112 506.70894,435.102427 496.773436,453.680205 C486.837932,472.257983 472.257983,486.837932 453.680205,496.773436 C435.102427,506.70894 416.675112,512 365.858544,512 L146.141456,512 C95.3248882,512 76.8975727,506.70894 58.3197949,496.773436 C39.7420171,486.837932 25.1620684,472.257983 15.2265641,453.680205 C5.29105984,435.102427 0,416.675112 0,365.858544 L0,146.141456 C0,95.3248882 5.29105984,76.8975727 15.2265641,58.3197949 C25.1620684,39.7420171 39.7420171,25.1620684 58.3197949,15.2265641 C76.8975727,5.29105984 95.3248882,0 146.141456,0 Z" id="bg" fill="#FFD849"></path>
            <g id="NXIcon" transform="translate(244.2421, 244.247)" fill="#3775A9">
                <path d="M9.27226711,104.002535 C-41.7379718,101.595218 -82.3215895,59.5474132 -82.3215895,7.87034003 C-82.3215895,-45.2511234 -39.1714189,-88.4223429 13.9241443,-88.4223429 C65.5760214,-88.4223429 107.603325,-47.8189282 110.009468,3.21619369 L76.3234617,-6.89453803 C69.7466699,-35.3008795 44.2415504,-56.3247819 13.9241443,-56.3247819 C-21.5263677,-56.3247819 -50.2396783,-27.5974648 -50.2396783,7.87034003 C-50.2396783,38.2025352 -29.2260264,63.7200962 -0.83353491,70.3000962 L9.27226711,104.002535 Z M174.3337,7.87034003 C174.3337,12.6849742 174.173291,17.4996083 173.692062,22.3142425 L142.091379,12.845462 C142.251789,11.2405839 142.251789,9.47521807 142.251789,7.87034003 C142.251789,-63.0652697 84.8251681,-120.519904 13.9241443,-120.519904 C-56.9768796,-120.519904 -114.403501,-63.0652697 -114.403501,7.87034003 C-114.403501,78.8059498 -56.9768796,136.260584 13.9241443,136.260584 C15.5282398,136.260584 17.2927449,136.260584 18.8968405,136.100096 L28.3610043,167.716194 C23.5487176,168.197657 18.7364309,168.358145 13.9241443,168.358145 C-74.6219308,168.358145 -146.485413,96.4596083 -146.485413,7.87034003 C-146.485413,-80.7189282 -74.6219308,-152.617465 13.9241443,-152.617465 C102.470219,-152.617465 174.3337,-80.7189282 174.3337,7.87034003 Z" id="target" fill-rule="nonzero" transform="translate(13.9241, 7.8703) rotate(136) translate(-13.9241, -7.8703)"></path>
                <polygon id="arrow" transform="translate(-105.242, 5.818) rotate(136) translate(105.242, -5.818)" points="-89.6020488 -10.0703059 -29.1276461 -30.2917693 -189.537202 -78.4381107 -141.414335 82.0496941 -121.202731 21.5457917 -52.7078509 90.0740844 -20.9467587 58.297499"></polygon>
            </g>
        </g>
    </g>
</svg>